<svg xmlns="http://www.w3.org/2000/svg" viewBox="0 0 1024 1024" width="1024" height="1024">
  <!-- Mercadito Online PY - Logo Principal -->
  <!-- Diseño optimizado: Carrito + Pin de ubicación -->
  
  <g transform="translate(512, 512)">
    
    <!-- Carrito de compras -->
    <!-- Base del carrito -->
    <rect x="-240" y="-40" width="480" height="300" rx="40" fill="#1D4ED8"/>
    <!-- Parte superior -->
    <rect x="-240" y="-40" width="480" height="120" rx="40" fill="#1D4ED8"/>
    
    <!-- Ruedas -->
    <circle cx="-160" cy="310" r="60" fill="#1D4ED8"/>
    <circle cx="160" cy="310" r="60" fill="#1D4ED8"/>
    <circle cx="-160" cy="310" r="38" fill="#FFFFFF"/>
    <circle cx="160" cy="310" r="38" fill="#FFFFFF"/>
    
    <!-- Asa del carrito -->
    <path d="M -200 -40 Q -200 -220 0 -220 Q 200 -220 200 -40" 
          stroke="#1D4ED8" 
          stroke-width="50" 
          fill="none" 
          stroke-linecap="round"/>
    
    <!-- Pin de ubicación (Paraguay) - centrado y prominente -->
    <g transform="translate(0, 40)">
      <!-- Forma de pin/gota -->
      <path d="M 0 -140 L -80 20 Q -80 70 0 120 Q 80 70 80 20 Z" 
            fill="#FACC15"/>
      <!-- Círculo interno azul -->
      <circle cx="0" cy="0" r="55" fill="#1D4ED8"/>
      <!-- Punto central blanco -->
      <circle cx="0" cy="0" r="28" fill="#FFFFFF"/>
    </g>
    
    <!-- Productos decorativos (simplificados) -->
    <circle cx="-110" cy="100" r="38" fill="#FACC15" opacity="0.95"/>
    <circle cx="110" cy="100" r="38" fill="#FACC15" opacity="0.95"/>
    <rect x="-50" y="80" width="100" height="60" rx="15" fill="#FACC15" opacity="0.95"/>
    
  </g>
</svg>
